<?xml version="1.0" standalone="no"?>
<!DOCTYPE svg PUBLIC "-//W3C//DTD SVG 20010904//EN"
 "http://www.w3.org/TR/2001/REC-SVG-20010904/DTD/svg10.dtd">
<svg version="1.0" xmlns="http://www.w3.org/2000/svg"
 width="900.000000pt" height="765.000000pt" viewBox="0 0 900.000000 765.000000"
 preserveAspectRatio="xMidYMid meet">

<g transform="translate(0.000000,765.000000) scale(0.100000,-0.100000)"
fill="#000000" stroke="none">
<path d="M8325 7419 c-93 -27 -168 -35 -1084 -119 -541 -50 -987 -90 -992 -90
-5 0 -9 -11 -9 -25 l0 -26 108 2 c59 2 126 -1 150 -5 26 -5 48 -4 55 2 7 6
107 17 222 26 116 9 246 21 290 26 44 6 181 19 304 30 177 16 232 24 257 39
26 16 68 21 236 31 111 6 231 17 265 25 101 24 280 84 293 100 7 8 11 15 9 14
-2 0 -49 -14 -104 -30z"/>
<path d="M3743 7263 c9 -2 25 -2 35 0 9 3 1 5 -18 5 -19 0 -27 -2 -17 -5z"/>
<path d="M2335 7238 c-214 -5 -390 -10 -392 -12 -2 -1 0 -17 3 -34 6 -29 10
-32 46 -32 21 0 49 7 63 16 18 12 73 17 252 24 339 13 616 31 633 41 16 10 1
9 -605 -3z"/>
<path d="M3379 6939 c-55 -72 -63 -97 -67 -224 -5 -153 16 -296 64 -429 20
-56 64 -182 99 -281 34 -99 85 -241 112 -315 28 -74 60 -166 73 -205 12 -38
46 -133 75 -210 30 -77 69 -196 88 -265 51 -182 51 -187 30 -199 -16 -9 -15
-13 19 -48 28 -29 47 -67 81 -163 25 -69 51 -145 58 -170 7 -25 20 -52 29 -60
31 -27 48 -63 90 -185 41 -118 164 -435 260 -670 27 -66 72 -178 100 -250 29
-71 68 -159 87 -194 l36 -64 -6 -161 c-3 -103 -11 -186 -22 -229 l-18 -69 -27
44 c-15 24 -55 95 -90 158 -56 101 -165 272 -262 409 -17 24 -39 46 -50 49
-13 3 -18 14 -18 37 0 19 -8 39 -20 50 -11 10 -33 41 -49 69 -16 28 -38 60
-50 70 -11 11 -21 24 -21 29 0 6 -12 26 -27 46 -16 20 -28 41 -28 46 0 6 -22
44 -47 85 -26 42 -54 95 -63 119 -8 25 -19 49 -24 55 -5 6 -108 207 -229 446
-120 239 -275 543 -342 675 -68 132 -136 275 -152 318 -16 44 -35 91 -42 105
-8 15 -31 72 -51 127 -20 55 -43 110 -51 122 -8 12 -29 64 -48 115 -34 93
-101 264 -170 433 -53 127 -168 344 -239 449 -74 108 -193 236 -250 269 -49
29 -223 84 -233 74 -4 -4 12 -131 36 -284 23 -153 44 -296 47 -318 2 -22 23
-164 45 -315 22 -151 46 -320 53 -375 8 -55 18 -122 24 -150 21 -104 74 -498
75 -559 l1 -40 -790 -641 -790 -640 -167 -420 c-91 -231 -167 -431 -167 -445
0 -14 100 -358 222 -765 l222 -739 1380 -230 1380 -230 209 -273 208 -273 82
0 c144 0 970 21 1013 26 l41 5 223 387 c123 213 222 387 220 387 -4 0 151 268
159 275 10 8 71 111 81 136 7 19 16 24 46 25 219 8 417 19 523 29 52 5 140 12
195 14 55 3 260 14 455 26 195 11 393 21 440 23 168 7 803 45 1041 63 l85 6
12 69 c7 38 12 93 12 122 0 28 16 216 36 417 63 665 124 1324 124 1361 l0 36
-969 379 -968 379 17 51 c10 28 25 65 34 82 9 18 14 32 12 32 -7 0 40 128 59
161 8 14 18 43 23 65 5 21 173 489 372 1039 326 901 366 1003 396 1033 19 18
34 34 34 36 0 1 -19 9 -41 16 -50 17 -34 35 -166 -185 -105 -177 -170 -301
-213 -409 -71 -179 -99 -245 -123 -293 -15 -29 -52 -114 -83 -190 -106 -261
-142 -348 -184 -443 -39 -88 -70 -167 -163 -422 -20 -54 -41 -106 -46 -116 -6
-11 -24 -57 -42 -103 -58 -155 -107 -283 -150 -389 -41 -104 -106 -279 -179
-480 -34 -96 -55 -146 -112 -270 -11 -25 -51 -124 -88 -220 -37 -96 -92 -238
-123 -315 -31 -77 -83 -210 -116 -295 -33 -85 -80 -202 -104 -260 -25 -58 -59
-143 -77 -190 -42 -113 -55 -135 -125 -223 -66 -83 -208 -300 -269 -411 -43
-80 -103 -232 -213 -541 -86 -245 -142 -364 -212 -457 -65 -86 -120 -132 -229
-190 -57 -32 -79 -48 -64 -48 33 0 119 38 175 77 56 39 64 23 16 -31 -48 -55
-127 -89 -220 -94 -137 -8 -256 29 -369 115 -56 43 -179 162 -224 217 -56 69
-165 237 -202 311 -19 39 -42 81 -51 95 l-17 25 23 -20 c29 -25 29 -23 -38 99
-50 91 -53 100 -37 112 17 12 16 16 -9 66 -15 29 -33 60 -41 69 -8 9 -21 38
-29 66 -8 27 -28 79 -44 114 -15 35 -31 77 -35 93 -4 17 -29 55 -56 86 l-49
57 -5 102 c-5 102 -6 103 -45 150 -22 27 -47 54 -56 61 -22 18 -19 61 5 67 25
7 25 5 -2 81 -20 53 -21 64 -9 72 12 7 9 18 -16 67 -36 68 -79 174 -88 221 -4
18 -17 60 -31 94 -13 33 -46 138 -74 232 -27 94 -68 223 -91 286 -78 217 -167
505 -204 660 -20 85 -61 247 -90 360 -30 113 -76 302 -104 420 -27 118 -70
298 -94 400 -130 537 -251 1133 -272 1335 l-6 60 33 -60 c30 -55 168 -358 168
-369 0 -3 25 -70 56 -148 57 -145 137 -375 192 -548 47 -150 111 -314 237
-610 167 -392 329 -756 432 -970 49 -102 98 -205 108 -230 10 -25 84 -180 163
-345 79 -165 173 -365 207 -445 35 -80 86 -197 115 -260 88 -195 147 -346 285
-725 43 -115 108 -295 146 -400 91 -249 147 -418 195 -592 39 -142 54 -173 54
-111 0 18 21 103 46 188 25 85 61 209 80 275 72 246 107 364 150 500 24 77 66
217 94 310 100 335 402 1262 558 1710 119 343 285 786 476 1275 42 107 109
278 147 380 39 102 95 248 124 325 163 427 189 524 190 710 0 99 -3 116 -28
169 -35 77 -109 179 -170 239 -27 26 -51 46 -53 44 -2 -2 -5 -12 -7 -23 -1
-10 -15 -45 -30 -76 -15 -31 -27 -63 -27 -70 0 -7 -18 -50 -39 -94 -22 -45
-48 -106 -57 -135 -10 -30 -20 -56 -24 -59 -3 -3 -16 -32 -29 -65 -12 -33 -26
-67 -31 -76 -21 -41 -150 -359 -150 -371 0 -8 -6 -22 -14 -33 -12 -18 -85
-186 -91 -210 -1 -5 -14 -36 -29 -68 -14 -32 -26 -63 -26 -69 0 -10 -24 -66
-55 -128 -7 -14 -59 -136 -115 -272 -89 -215 -105 -248 -124 -248 -11 0 -66 7
-121 15 -55 8 -109 14 -120 14 -25 -1 49 -26 130 -44 74 -16 120 -34 112 -42
-4 -3 -43 4 -87 17 -70 20 -87 21 -135 12 -46 -10 -79 -8 -188 9 -73 11 -174
27 -225 34 -52 8 -97 17 -102 20 -5 3 -100 14 -212 25 -164 16 -205 23 -215
37 -19 25 -16 34 10 28 91 -21 119 -24 172 -24 122 1 99 15 -55 35 -118 15
-154 22 -156 34 -2 14 -142 338 -163 377 -5 10 -91 207 -192 438 -197 455
-228 524 -263 600 -13 28 -29 66 -36 85 -7 19 -25 58 -40 85 -15 28 -33 68
-40 90 -7 22 -26 67 -42 100 -17 33 -33 71 -37 84 -7 23 -7 23 -32 -10z m3721
-1289 c0 -5 -8 -10 -17 -10 -15 0 -16 2 -3 10 19 12 20 12 20 0z m-123 -282
c-3 -8 -6 -5 -6 6 -1 11 2 17 5 13 3 -3 4 -12 1 -19z m-17 -58 c0 -5 -2 -10
-4 -10 -3 0 -8 5 -11 10 -3 6 -1 10 4 10 6 0 11 -4 11 -10z m-43 -115 c0 -8
-4 -15 -9 -15 -10 0 -11 14 -1 23 9 10 10 9 10 -8z m-17 -81 c0 -2 -7 -4 -15
-4 -8 0 -15 4 -15 10 0 5 7 7 15 4 8 -4 15 -8 15 -10z m-2551 -170 c5 -26 16
-32 63 -32 90 -1 283 -58 314 -93 16 -18 16 -19 -2 -19 -10 0 -50 11 -89 24
-38 13 -132 38 -208 56 -124 29 -139 35 -148 57 -18 47 -13 53 29 39 22 -8 38
-21 41 -32z m2491 22 c0 -3 -4 -8 -10 -11 -5 -3 -10 -1 -10 4 0 6 5 11 10 11
6 0 10 -2 10 -4z m-30 -56 c-9 -5 -9 -9 -1 -14 6 -4 11 -12 11 -19 0 -6 -6 -2
-14 8 -11 15 -12 25 -3 40 7 14 12 16 15 6 2 -7 -1 -17 -8 -21z m-2340 -65
c68 -15 148 -37 176 -50 49 -22 52 -25 64 -75 8 -34 25 -67 48 -92 19 -21 33
-40 31 -42 -2 -2 -23 -6 -46 -9 -40 -5 -43 -3 -43 18 0 13 -19 58 -41 100 -48
89 -53 92 -209 125 -110 23 -140 34 -140 51 0 6 8 8 18 5 9 -2 73 -17 142 -31z
m-2152 -328 c2 -9 -2 -17 -9 -17 -29 0 -215 -170 -328 -300 -89 -102 -90 -103
-67 -65 32 51 87 116 206 240 154 162 189 187 198 142z m4314 -59 c-8 -8 -9
-4 -5 13 4 13 8 18 11 10 2 -7 -1 -18 -6 -23z m-32 -98 c0 -5 -5 -10 -11 -10
-5 0 -7 5 -4 10 3 6 8 10 11 10 2 0 4 -4 4 -10z m307 -67 c140 -97 254 -193
228 -193 -2 0 -44 26 -92 58 -48 32 -114 76 -146 96 -32 21 -62 46 -67 56 -24
44 -5 40 77 -17z m-327 -19 c0 -2 -7 -4 -15 -4 -8 0 -15 4 -15 10 0 5 7 7 15
4 8 -4 15 -8 15 -10z m261 -32 c13 -10 56 -36 94 -56 75 -40 108 -64 65 -47
-88 34 -206 98 -203 109 6 17 16 15 44 -6z m-304 -24 c-3 -8 -6 -5 -6 6 -1 11
2 17 5 13 3 -3 4 -12 1 -19z m3 -32 c0 -2 -7 -6 -15 -10 -8 -3 -15 -1 -15 4 0
6 7 10 15 10 8 0 15 -2 15 -4z m289 -20 c63 -18 61 -32 -4 -28 -46 3 -55 7
-55 23 0 22 2 23 59 5z m-314 -36 c3 -5 0 -10 -8 -10 -10 0 -14 -7 -10 -22 4
-20 3 -20 -6 -6 -11 17 -5 48 9 48 5 0 12 -4 15 -10z m872 -15 c46 -20 64 -43
57 -77 -6 -29 -6 -29 89 -48 61 -12 120 -32 297 -98 58 -21 127 -44 153 -51
28 -6 72 -29 104 -54 81 -61 106 -77 126 -77 17 0 21 -9 18 -41 -1 -10 11 -22
29 -29 46 -19 64 -52 57 -105 -6 -43 -6 -44 27 -55 44 -14 68 -42 105 -120 23
-47 31 -80 31 -119 0 -45 5 -59 30 -88 32 -36 38 -68 17 -97 -13 -17 -14 -16
-27 13 -17 43 -25 45 -53 17 -17 -17 -41 -26 -80 -31 -86 -11 -129 14 -226
135 -44 54 -77 101 -74 104 15 15 34 2 73 -51 24 -32 62 -77 86 -100 39 -40
46 -43 95 -43 74 0 105 17 101 56 -5 46 -76 187 -116 232 -21 23 -35 46 -31
52 13 20 -7 9 -38 -22 -58 -58 -185 -107 -347 -135 -160 -27 -357 -30 -382 -5
-9 9 -8 12 8 13 10 0 30 2 44 4 14 2 66 9 115 15 103 12 325 55 402 76 79 23
168 94 117 94 -9 0 -35 9 -58 20 -84 40 -274 108 -376 134 -58 15 -159 45
-225 66 -118 37 -155 47 -305 74 -41 8 -65 15 -53 15 105 5 616 -123 778 -194
28 -12 101 -37 163 -55 86 -26 115 -31 124 -22 6 6 10 13 7 15 -2 2 -51 19
-109 39 -58 20 -163 57 -235 83 -208 75 -389 116 -610 140 -33 4 -172 27 -310
51 -137 24 -262 44 -277 44 -30 0 -31 1 -23 22 4 9 24 12 73 10 153 -5 337
-25 500 -53 120 -20 225 -31 345 -35 247 -10 271 -9 262 7 -20 32 -223 103
-398 139 -38 8 -60 17 -64 28 -21 68 -25 72 -62 72 -21 0 -46 -7 -57 -15 -30
-23 -44 -18 -44 15 0 32 -9 36 -41 20 -21 -12 -26 -1 -7 18 17 17 151 15 195
-3z m-512 -61 c55 -8 127 -22 160 -29 57 -13 57 -14 15 -11 -85 6 -310 41
-310 48 0 11 21 10 135 -8z m-4426 -55 c-8 -4 -36 -13 -64 -19 -27 -6 -115
-31 -195 -55 -80 -24 -201 -56 -270 -69 -69 -14 -147 -32 -175 -39 -27 -8 -75
-18 -105 -22 -50 -7 -53 -6 -41 9 7 9 23 16 35 16 12 0 78 14 146 31 69 16
186 43 260 60 133 29 376 103 395 120 5 6 13 3 18 -7 6 -11 5 -19 -4 -25z
m2434 -94 c164 -28 177 -32 177 -51 0 -17 11 -18 -101 5 -52 10 -112 22 -134
25 l-40 6 45 -18 c25 -11 76 -35 113 -55 38 -21 75 -37 83 -37 8 0 14 -6 14
-14 0 -16 -23 -15 -123 5 -26 5 -70 9 -97 9 -40 0 -51 4 -61 21 -8 16 -8 23 1
29 8 5 7 9 -4 13 -13 5 -56 76 -56 93 0 3 10 3 23 0 12 -4 84 -18 160 -31z
m1537 -20 c0 -8 -4 -15 -10 -15 -5 0 -7 7 -4 15 4 8 8 15 10 15 2 0 4 -7 4
-15z m-4196 -20 c-2 -28 -276 -91 -434 -100 -131 -7 -565 -132 -710 -205 -52
-26 -119 -55 -147 -64 -32 -11 -53 -23 -53 -32 0 -25 93 3 228 69 234 115 559
197 686 173 31 -6 35 -10 26 -22 -7 -8 -16 -14 -20 -14 -4 0 -72 -31 -151 -70
-79 -38 -171 -76 -204 -85 -104 -27 -156 -15 -60 15 138 42 267 104 148 71
-21 -6 -65 -11 -98 -11 -33 0 -87 -9 -120 -19 -74 -24 -56 -26 55 -6 96 17 95
17 88 10 -2 -3 -51 -14 -109 -26 -57 -12 -151 -39 -209 -60 -58 -21 -141 -47
-185 -59 -73 -18 -84 -25 -127 -71 -63 -69 -76 -99 -88 -214 -7 -61 -23 -128
-42 -179 -26 -70 -29 -91 -25 -153 3 -61 2 -71 -10 -62 -7 6 -13 22 -13 34 0
39 -12 85 -22 85 -6 0 -7 -27 -4 -67 3 -38 10 -122 15 -188 6 -75 17 -142 30
-179 24 -69 39 -150 51 -288 9 -111 6 -134 -20 -141 -30 -8 -50 67 -50 187 0
83 -6 120 -31 206 -16 58 -34 139 -39 180 -5 41 -12 98 -16 125 -4 34 -1 72
11 115 42 161 55 245 49 316 -6 65 -4 75 26 135 17 35 41 88 52 116 23 62 104
156 159 184 46 23 49 23 49 4 0 -19 9 -19 29 -1 24 20 742 206 796 206 9 0 30
9 46 21 17 11 58 25 92 30 34 6 112 18 172 28 118 20 180 22 179 6z m4175 -34
c-6 -16 -18 -32 -27 -36 -14 -5 -14 -4 0 12 8 10 18 26 21 36 4 9 9 17 11 17
3 0 0 -13 -5 -29z m-3899 0 c0 -5 2 -15 5 -23 4 -10 -19 -14 -107 -16 -128 -2
-245 -16 -331 -38 -33 -8 -64 -13 -70 -11 -25 8 134 48 248 62 66 9 143 19
170 24 70 12 85 12 85 2z m4637 -37 c-3 -3 -12 -4 -19 -1 -8 3 -5 6 6 6 11 1
17 -2 13 -5z m-274 -23 c64 -6 170 -15 235 -21 158 -13 487 -79 471 -94 -4 -4
-113 6 -339 30 -74 7 -238 24 -365 36 -126 11 -232 22 -233 24 -2 1 -1 12 3
24 6 20 12 22 59 17 28 -3 104 -11 169 -16z m-4617 -42 c33 -37 10 -56 -134
-109 -88 -32 -172 -49 -172 -33 0 9 179 87 235 103 l30 8 -35 1 c-37 1 -204
-38 -278 -65 -50 -19 -62 -14 -33 13 19 17 119 53 236 85 22 6 45 12 50 13 35
11 84 3 101 -16z m2666 -57 c100 -35 104 -55 11 -46 -75 7 -116 28 -121 64 -3
19 0 22 15 16 10 -4 53 -19 95 -34z m76 28 c13 0 22 -6 22 -16 0 -18 -32 -15
-111 11 l-44 15 55 -5 c30 -3 65 -5 78 -5z m1348 -49 c-9 -16 -16 -37 -16 -46
0 -8 -4 -15 -10 -15 -18 0 -11 46 11 74 27 34 35 27 15 -13z m467 -75 c261
-36 506 -54 787 -61 425 -9 466 -13 579 -51 12 -4 12 -8 -2 -21 -13 -13 -20
-14 -29 -5 -9 9 -9 12 2 13 8 1 -1 5 -20 10 -19 5 -188 14 -375 19 -187 6
-346 13 -354 15 -7 3 -91 7 -186 10 -95 3 -232 14 -305 25 -73 11 -177 23
-232 27 -86 5 -98 8 -98 25 0 24 11 23 233 -6z m-58 -90 c77 -8 193 -20 258
-26 65 -6 135 -18 155 -25 33 -11 17 -12 -128 -8 -305 8 -490 35 -490 70 0 10
9 12 33 9 17 -3 95 -12 172 -20z m-480 4 c3 -5 1 -10 -4 -10 -6 0 -11 5 -11
10 0 6 2 10 4 10 3 0 8 -4 11 -10z m883 3 c-10 -2 -26 -2 -35 0 -10 3 -2 5 17
5 19 0 27 -2 18 -5z m-899 -65 c1 -4 -5 -5 -13 -2 -8 3 -12 13 -8 27 5 20 6
20 13 1 4 -10 8 -22 8 -26z m-4379 -10 c0 -19 -2 -20 -10 -8 -13 19 -13 30 0
30 6 0 10 -10 10 -22z m4369 -21 c0 -9 -2 -8 -6 1 -2 6 -10 9 -15 6 -7 -4 -8
-2 -4 5 9 13 26 5 25 -12z m530 12 c98 -1 154 -4 136 -9 -16 -4 -48 -8 -70 -9
-40 -1 -40 -1 -15 -16 14 -8 30 -16 35 -19 19 -9 260 -75 313 -87 29 -6 51
-13 49 -15 -8 -8 -703 118 -714 130 -3 3 -3 13 1 22 5 14 15 16 53 10 25 -3
121 -7 212 -7z m390 -70 c109 -13 133 -21 114 -40 -9 -9 -23 -9 -55 -1 -24 5
-81 15 -128 22 -180 26 -125 41 69 19z m-954 -17 c-3 -3 -11 0 -18 7 -9 10 -8
11 6 5 10 -3 15 -9 12 -12z m-10 -22 c3 -6 -1 -7 -9 -4 -18 7 -21 14 -7 14 6
0 13 -4 16 -10z m-25 -56 c-6 -6 -7 -14 -3 -17 3 -4 1 -7 -5 -7 -6 0 -14 5
-17 10 -3 6 -1 10 4 10 6 0 10 3 10 8 -1 4 -1 14 0 22 1 13 2 13 11 0 5 -9 5
-19 0 -26z m265 -135 c-20 -40 -40 -81 -44 -89 -11 -20 -50 -116 -67 -165 -8
-22 -19 -48 -24 -57 -6 -10 -10 -24 -10 -32 0 -8 -4 -17 -9 -20 -15 -9 14 91
54 189 20 50 46 115 57 145 11 30 32 75 47 100 42 72 39 18 -4 -71z m650 82
c3 -5 1 -12 -4 -15 -12 -8 -41 3 -41 15 0 12 37 12 45 0z m-945 -15 c0 -3 -4
-8 -10 -11 -5 -3 -10 -1 -10 4 0 6 5 11 10 11 6 0 10 -2 10 -4z m2427 -279
c-4 -26 0 -66 8 -98 8 -30 15 -70 15 -89 0 -81 -80 -188 -223 -298 -49 -38
-58 -42 -78 -32 -21 12 -21 12 11 28 18 9 76 59 130 111 84 84 99 103 114 153
16 52 16 60 2 109 -16 54 -21 140 -9 152 3 4 13 7 21 7 12 0 13 -9 9 -43z
m-7522 -5 c-5 -24 -1 -29 38 -45 59 -24 109 -68 162 -141 94 -133 76 -157 -30
-40 -82 92 -138 134 -176 134 -35 0 -86 -44 -129 -110 -55 -86 -63 -124 -71
-375 -4 -126 -11 -260 -15 -297 -5 -48 -3 -68 5 -68 6 0 11 4 11 10 0 5 14 25
30 43 34 39 37 52 15 73 -20 21 -19 34 4 34 10 0 38 7 62 16 66 23 141 11 177
-28 15 -16 39 -43 55 -60 15 -16 27 -31 27 -34 0 -12 -89 -56 -158 -79 -101
-33 -118 -45 -104 -72 15 -27 7 -33 -43 -33 -76 0 -108 46 -134 194 -16 87
-13 142 9 221 13 47 20 101 20 165 1 115 22 242 47 277 10 14 23 33 28 42 22
35 60 86 70 93 6 5 6 8 -2 8 -7 0 -13 7 -13 15 0 8 17 19 41 25 22 6 42 18 45
26 2 7 6 21 9 30 8 26 27 4 20 -24z m170 3 c155 -69 313 -256 354 -421 11 -43
25 -99 30 -124 9 -40 10 -35 7 43 -2 49 -1 86 2 83 11 -12 31 -156 31 -233 1
-94 -3 -91 109 -93 41 0 149 -9 240 -20 92 -10 239 -23 327 -30 88 -6 188 -15
221 -20 34 -6 76 -10 95 -10 26 0 31 -2 20 -12 -9 -10 -67 -13 -224 -12 -198
1 -358 14 -532 45 -76 13 -238 39 -247 39 -11 0 4 -40 16 -41 32 -1 177 -19
301 -37 77 -11 212 -23 300 -27 200 -8 365 -21 372 -29 9 -9 -164 -7 -237 3
-36 5 -126 12 -200 15 -135 5 -135 5 -80 -11 40 -11 123 -16 298 -20 218 -5
245 -4 261 12 25 21 33 53 16 63 -9 5 -11 19 -6 47 l7 40 12 -34 c7 -19 12
-43 12 -55 1 -33 48 109 65 196 20 97 58 192 96 240 35 45 36 58 4 176 -29
110 -31 139 -4 63 30 -86 60 -246 43 -228 -14 14 -43 -15 -57 -55 -8 -24 -25
-106 -38 -182 -13 -77 -25 -134 -27 -128 -2 6 4 52 13 103 8 50 14 93 12 95
-6 6 -25 -88 -42 -205 -9 -57 -21 -116 -28 -130 -15 -31 -82 -70 -122 -72 -16
0 -39 -4 -50 -9 -37 -15 42 -37 160 -44 61 -4 170 -16 243 -27 74 -10 136 -19
139 -19 2 0 1 -4 -2 -10 -3 -5 -18 -10 -33 -10 -42 0 -331 39 -487 65 -77 14
-178 29 -225 35 -46 5 -134 21 -195 34 -194 43 -528 69 -538 42 -3 -7 -2 -18
1 -23 4 -6 86 -18 182 -28 96 -9 279 -34 405 -55 127 -21 262 -41 300 -45 39
-4 140 -18 225 -31 85 -14 189 -28 232 -31 71 -5 77 -7 81 -31 l5 -25 -177 7
c-197 7 -241 12 -241 31 0 15 -17 20 -146 39 -55 9 -185 31 -290 50 -105 19
-260 44 -345 56 -271 36 -287 40 -332 88 -30 32 -39 59 -63 187 -9 44 -28 120
-45 168 -16 49 -29 91 -29 95 0 24 65 -137 104 -260 48 -147 75 -206 76 -162
0 28 -80 262 -118 345 -123 268 -206 410 -275 472 -17 15 -26 27 -21 27 21 0
92 -58 118 -97 139 -202 220 -336 248 -411 38 -99 50 -85 18 20 -40 131 -112
260 -204 361 -87 97 -145 136 -228 157 -47 12 -60 24 -35 33 20 7 68 -4 122
-28z m4810 -15 c-8 -9 -12 -20 -8 -23 3 -4 1 -7 -5 -7 -7 0 -12 4 -12 9 0 20
12 38 25 38 13 0 13 -3 0 -17z m-25 -64 c0 -3 -4 -8 -10 -11 -5 -3 -10 -1 -10
4 0 6 5 11 10 11 6 0 10 -2 10 -4z m-20 -56 c0 -5 -5 -10 -11 -10 -5 0 -7 5
-4 10 3 6 8 10 11 10 2 0 4 -4 4 -10z m1533 -6 c53 -5 67 -10 63 -21 -4 -8 -6
-21 -6 -29 0 -16 -33 -18 -93 -5 -173 39 -187 44 -187 58 0 16 38 16 223 -3z
m-187 -55 c9 -15 -23 -10 -35 5 -10 12 -8 13 9 9 11 -3 23 -9 26 -14z m1284
-106 c0 -46 -39 -111 -100 -165 -55 -50 -165 -116 -176 -105 -6 5 -5 6 79 73
66 52 165 167 174 201 7 32 23 29 23 -4z m-5310 -85 c0 -10 -4 -18 -10 -18 -5
0 -10 15 -10 33 0 24 3 28 10 17 5 -8 10 -23 10 -32z m-373 -181 c-13 -19 -31
-70 -41 -113 -42 -187 -62 -258 -73 -261 -8 -3 -10 11 -7 49 10 124 48 261
101 368 l38 75 3 -41 c2 -31 -3 -51 -21 -77z m3473 86 l95 -7 -75 -7 c-77 -6
-210 4 -236 19 -15 8 53 7 216 -5z m180 -49 c-28 -7 -165 -25 -255 -33 -102
-9 -150 -29 -159 -65 -3 -14 -16 -31 -28 -37 -20 -11 -21 -10 -15 27 4 22 7
46 7 54 0 17 71 37 170 49 60 7 304 12 280 5z m-800 -64 c0 -5 -5 -10 -11 -10
-5 0 -7 5 -4 10 3 6 8 10 11 10 2 0 4 -4 4 -10z m-4862 -142 c-7 -19 -38 -22
-38 -4 0 10 9 16 21 16 12 0 19 -5 17 -12z m4618 -308 c-44 -123 -56 -148
-114 -227 -39 -54 -83 -85 -99 -70 -9 9 236 409 246 401 1 -1 -13 -48 -33
-104z m-3449 4 c-3 -3 -12 -4 -19 -1 -8 3 -5 6 6 6 11 1 17 -2 13 -5z m313
-54 c230 -34 255 -39 247 -46 -7 -7 -455 65 -482 78 -17 7 -16 8 5 4 14 -3
117 -19 230 -36z m4040 -106 c0 -2 -13 -4 -30 -4 -16 0 -30 4 -30 8 0 5 14 7
30 4 17 -2 30 -6 30 -8z m-425 -14 l60 -7 -80 -1 c-44 0 -91 4 -105 8 -20 7
-17 8 20 8 25 0 72 -4 105 -8z m-2775 -112 c0 -6 -7 -7 -16 -4 -9 3 -32 7 -52
7 l-37 2 40 6 c44 7 65 4 65 -11z"/>
<path d="M7510 3806 c0 -3 34 -12 75 -21 75 -17 184 -50 325 -100 41 -15 102
-35 135 -45 101 -31 198 -69 205 -81 5 -7 9 -6 13 4 8 23 -13 36 -100 63 -65
20 -212 98 -263 139 -17 15 -390 53 -390 41z"/>
<path d="M7972 3766 c63 -58 179 -118 220 -114 30 3 25 7 -73 70 -107 68 -147
88 -177 88 -12 -1 -2 -15 30 -44z"/>
<path d="M8332 3407 c34 -31 88 -147 88 -187 0 -18 4 -29 10 -25 34 21 -12
171 -65 213 -39 31 -66 29 -33 -1z"/>
<path d="M818 3505 c-13 -14 -32 -39 -42 -55 l-17 -30 30 0 c27 0 31 4 45 52
8 29 13 54 12 56 -2 2 -15 -8 -28 -23z"/>
<path d="M710 3365 c-7 -9 -10 -18 -7 -22 8 -7 37 15 37 28 0 14 -16 11 -30
-6z"/>
<path d="M686 3267 c-6 -25 -26 -193 -26 -217 1 -10 7 -8 21 9 16 19 19 37 18
85 -1 34 2 80 6 104 8 44 -8 61 -19 19z"/>
<path d="M7078 3723 c12 -2 32 -2 45 0 12 2 2 4 -23 4 -25 0 -35 -2 -22 -4z"/>
<path d="M1009 2070 c-11 -7 -9 -10 6 -15 17 -6 44 -17 80 -34 6 -2 -2 7 -16
21 -33 31 -52 39 -70 28z"/>
<path d="M973 1963 c-26 -14 -43 -32 -43 -42 0 -16 7 -15 60 13 58 30 79 57
43 55 -10 -1 -37 -12 -60 -26z"/>
<path d="M4640 5011 c0 -4 6 -14 13 -23 10 -13 44 -17 197 -20 l185 -5 -175
23 c-96 13 -185 25 -197 27 -13 2 -23 1 -23 -2z"/>
<path d="M5063 4953 c9 -2 23 -2 30 0 6 3 -1 5 -18 5 -16 0 -22 -2 -12 -5z"/>
</g>
</svg>
